<?xml version="1.0" encoding="utf-8"?>
<!-- Generator: Adobe Illustrator 21.1.0, SVG Export Plug-In . SVG Version: 6.00 Build 0)  -->
<svg version="1.1" id="Layer_1" xmlns="http://www.w3.org/2000/svg" xmlns:xlink="http://www.w3.org/1999/xlink" x="0px" y="0px"
	 viewBox="0 0 190 383" style="enable-background:new 0 0 190 383;" xml:space="preserve">
<style type="text/css">
	.st0{fill:#FFFFFF;}
	.st1{opacity:0.6;fill:#E5E5E5;enable-background:new    ;}
</style>
<g>
	<path class="st0" d="M105.7,382.2c-0.5-0.4-1.5-0.6-3-0.6H86.1c-1.5,0-2.5,0.2-3,0.6H27.6c-14.4,0-26-11.6-26-26V144.4H1.3
		c-0.7,0-1.3-0.6-1.3-1.3v-26.3c0-0.7,0.6-1.3,1.3-1.3h0.3V109H1.3c-0.7,0-1.3-0.6-1.3-1.3V81.3C0,80.6,0.6,80,1.3,80h0.3V65.5H1.3
		c-0.7,0-1.3-0.6-1.3-1.3c0,0,0,0,0,0V49.9c0-0.7,0.6-1.3,1.3-1.3h0.3V26c0-14.4,11.6-26,26-26l0,0h134.1c14.4,0,26,11.6,26,26v62.9
		h0.3c0.7,0,1.3,0.6,1.3,1.3v40.2c0,0.7-0.6,1.3-1.3,1.3h-0.3v224.5c0,14.4-11.6,26-26,26H105.7z M43.6,9.1H29l0,0
		c-10.1,0-18.3,8.2-18.3,18.3c0,0,0,0,0,0v323.7c0,12.2,9.8,22,22,22l0,0h123.8c12.2,0,22-9.8,22-22l0,0V27.4
		c0-10.1-8.2-18.3-18.3-18.3h-14.6L43.6,9.1z"/>
	<path class="st1" d="M1.6,34.1h3.3v2.7H1.6V34.1z M184.4,34.1h3.3v2.7h-3.3V34.1z M1.6,344.2h3.3v2.7H1.6V344.2z M184.4,344.2h3.3
		v2.7h-3.3V344.2z"/>
</g>
</svg>
